# xmcd
#
# Track frame offsets:
#	150
#	16570
#	32258
#	47333
#	64106
#	80239
#	96513
#	112256
#	128723
#	142824
#
# Disc length: 2104 seconds
#
# Revision: 0
# Processed by: cddbd v1.5.2PL0 Copyright (c) Steve Scherf et al.
# Submitted via: EasyCDDAExtractor 15.3.0.1
#
DISCID=7a08360a
DTITLE=Fanny Lu - Felicidad Y Perpetua
DYEAR=2011
DGENRE=Latin
TTITLE0=La Mala
TTITLE1=No Estas Conmigo (Featuring Zion Y Lennox)
TTITLE2=Fanfarron
TTITLE3=Te Amo, Te Amo
TTITLE4=Don Juan (Featuring Chino Y Nacho)
TTITLE5=Que Vuelva
TTITLE6=Ni Loca (Featuring Dalmata)
TTITLE7=Un Beso Y Un Adios
TTITLE8=Prueba De Amor
TTITLE9=Me Equivoque
EXTD=
EXTT0=
EXTT1=
EXTT2=
EXTT3=
EXTT4=
EXTT5=
EXTT6=
EXTT7=
EXTT8=
EXTT9=
PLAYORDER=
